# xmcd CD database file
#
# Track frame offsets:
#	150
#	31041
#	50156
#	69035
#	95419
#	124000
#	170250
#	195995
#	226327
#	256142
#	296798
#
# Disc length: 4488 seconds
#
# Revision: 0
# Processed by: cddbd v1.5.2PL0 Copyright (c) Steve Scherf et al.
# Submitted via: CDex 1.70beta2
#
DISCID=8b11860b
DTITLE=Charanga Del Norte - Sapo Guapo
DYEAR=2005
DGENRE=Salsa
TTITLE0=Sapo Guapo
TTITLE1=Sabroso Como El Guarapo
TTITLE2=Asi Es La Humanidad
TTITLE3=Mambo
TTITLE4=Mueve La Cintura Mulato
TTITLE5=La Reina Isabel
TTITLE6=Magnifico
TTITLE7=Güiro América
TTITLE8=Pare Cochero
TTITLE9=Que Suene La Charanga
TTITLE10=Kikiriki
EXTD=YEAR: 2005
EXTT0=
EXTT1=
EXTT2=
EXTT3=
EXTT4=
EXTT5=
EXTT6=
EXTT7=
EXTT8=
EXTT9=
EXTT10=
PLAYORDER=
